# xmcd
# 
# Track frame offsets:
#     150
#     15538
#     26830
#     40847
#     72232
#     94050
#     128433
#     148846
#     163683
#     179172
#     199457
#     213452
#     239362
#     252504
#     271115
#     284586
#     314877
#     337637
# 
# Disc length: 4734
# 
# Revision: 1
# Processed by: cddbd v1.5.2PL0 Copyright (c) Steve Scherf et al.
# Submitted via: fre:ac v1.0.31
# 
DISCID=18127c12
DTITLE=Various Artist - Love, Poetry and Revolution 3/3
DYEAR=0
DGENRE=
TTITLE0=Various Artist - Open Mind - Magic Potion
TTITLE1=Various Artist - Phil Cordell - Red Lady
TTITLE2=Various Artist - Taiconderoga - Whitchi Tai To
TTITLE3=Various Artist - Hawkwind Zoo - Hurry On Sundown
TTITLE4=Various Artist - Principal Edwards Magic Theatre - Lament For The Earth
TTITLE5=Various Artist - Czar - Ritual Fire Dance
TTITLE6=Various Artist - The Fut - Have You Heard The Word
TTITLE7=Various Artist - Paper Bubble - Fillin' A Gap
TTITLE8=Various Artist - The Fox - Butterfly
TTITLE9=Various Artist - Complex - Images Blue
TTITLE10=Various Artist - Octopus - Rainchild
TTITLE11=Various Artist - T2 - Careful Sam
TTITLE12=Various Artist - Simon Finn - Laughing 'Til Tomorrow
TTITLE13=Various Artist - Beau - Creation
TTITLE14=Various Artist - Bill Nelson - End Of The Seasons
TTITLE15=Various Artist - Mark Fry - The Witch
TTITLE16=Various Artist - Kevin Coyne - Evil Island Home
TTITLE17=Various Artist - Lol Coxhill - I Am The Walrus
EXTD=
EXTT0=
EXTT1=
EXTT2=
EXTT3=
EXTT4=
EXTT5=
EXTT6=
EXTT7=
EXTT8=
EXTT9=
EXTT10=
EXTT11=
EXTT12=
EXTT13=
EXTT14=
EXTT15=
EXTT16=
EXTT17=
PLAYORDER=
